<svg width="51" height="42" viewBox="0 0 51 42" fill="none" xmlns="http://www.w3.org/2000/svg">
<path d="M3.71004 21V20.468L4.00404 20.44C4.32137 20.4027 4.55004 20.3513 4.69004 20.286C4.83004 20.2113 4.92804 20.0993 4.98404 19.95C5.04004 19.8007 5.07737 19.6 5.09604 19.348L5.68404 12.852C5.72137 12.4787 5.66071 12.2173 5.50204 12.068C5.34337 11.9093 5.00737 11.8067 4.49404 11.76L4.20004 11.732V11.2H7.07004L10.178 19.516H9.81404L12.824 11.2H15.61V11.732L15.316 11.76C14.98 11.788 14.7327 11.8393 14.574 11.914C14.4154 11.9887 14.3174 12.1007 14.28 12.25C14.2427 12.3993 14.2334 12.6 14.252 12.852L14.826 19.166C14.8634 19.5207 14.9334 19.7867 15.036 19.964C15.1387 20.132 15.2787 20.2487 15.456 20.314C15.6427 20.37 15.862 20.412 16.114 20.44L16.436 20.468V21H12.292V20.468L12.754 20.426C13.146 20.3887 13.384 20.2767 13.468 20.09C13.552 19.894 13.5754 19.586 13.538 19.166L12.922 12.222L13.118 12.264L9.94004 21H9.40804L6.34204 12.852L5.86604 19.348C5.84737 19.6 5.85671 19.8053 5.89404 19.964C5.94071 20.1227 6.05271 20.2393 6.23004 20.314C6.40737 20.3887 6.69671 20.4353 7.09804 20.454L7.39204 20.468V21H3.71004ZM18.3821 21.14C18.1395 21.14 17.9295 21.0607 17.7521 20.902C17.5841 20.734 17.5001 20.5147 17.5001 20.244C17.5001 20.0013 17.5888 19.8007 17.7661 19.642C17.9435 19.474 18.1488 19.39 18.3821 19.39C18.6248 19.39 18.8301 19.474 18.9981 19.642C19.1755 19.8007 19.2641 20.0013 19.2641 20.244C19.2641 20.5147 19.1755 20.734 18.9981 20.902C18.8301 21.0607 18.6248 21.14 18.3821 21.14ZM23.7633 21.14C23.334 21.14 22.9886 21.07 22.7273 20.93C22.4753 20.79 22.3493 20.622 22.3493 20.426C22.3493 20.2393 22.4006 20.09 22.5033 19.978C22.6153 19.8567 22.746 19.782 22.8953 19.754C23.054 19.7167 23.2033 19.726 23.3433 19.782L24.3933 20.16C24.4773 20.1973 24.5613 20.2207 24.6453 20.23C24.7386 20.2393 24.8086 20.244 24.8553 20.244C25.07 20.244 25.2286 20.1553 25.3313 19.978C25.4433 19.7913 25.5133 19.5393 25.5413 19.222C25.5786 18.9047 25.5973 18.5547 25.5973 18.172V12.656C25.5973 12.3387 25.5086 12.1147 25.3313 11.984C25.1633 11.8533 24.86 11.7787 24.4213 11.76L24.0013 11.732V11.2H28.3693V11.732L28.0893 11.76C27.6506 11.788 27.3426 11.8673 27.1653 11.998C26.9973 12.1193 26.9133 12.3387 26.9133 12.656V17.626C26.9133 18.2793 26.8013 18.872 26.5773 19.404C26.3626 19.936 26.022 20.3607 25.5553 20.678C25.0886 20.986 24.4913 21.14 23.7633 21.14ZM29.6614 21.14C29.4188 21.14 29.2088 21.0607 29.0314 20.902C28.8634 20.734 28.7794 20.5147 28.7794 20.244C28.7794 20.0013 28.8681 19.8007 29.0454 19.642C29.2228 19.474 29.4281 19.39 29.6614 19.39C29.9041 19.39 30.1094 19.474 30.2774 19.642C30.4548 19.8007 30.5434 20.0013 30.5434 20.244C30.5434 20.5147 30.4548 20.734 30.2774 20.902C30.1094 21.0607 29.9041 21.14 29.6614 21.14ZM40.0141 21.14C38.9595 21.14 38.0401 20.93 37.2561 20.51C36.4721 20.0807 35.8655 19.4973 35.4361 18.76C35.0161 18.0227 34.8061 17.1827 34.8061 16.24C34.8061 15.5307 34.9321 14.8633 35.1841 14.238C35.4455 13.6127 35.8141 13.062 36.2901 12.586C36.7755 12.11 37.3541 11.7367 38.0261 11.466C38.6981 11.1953 39.4448 11.06 40.2661 11.06C40.9848 11.06 41.6101 11.1347 42.1421 11.284C42.6741 11.4333 43.1688 11.62 43.6261 11.844V13.72H43.0801C42.9215 13.132 42.5901 12.6607 42.0861 12.306C41.5915 11.942 40.9101 11.76 40.0421 11.76C39.2301 11.76 38.5395 11.9373 37.9701 12.292C37.4008 12.6467 36.9668 13.132 36.6681 13.748C36.3695 14.364 36.2201 15.0733 36.2201 15.876C36.2201 16.4453 36.3041 17.0053 36.4721 17.556C36.6495 18.0973 36.9061 18.5873 37.2421 19.026C37.5781 19.4553 37.9981 19.8007 38.5021 20.062C39.0061 20.314 39.5848 20.44 40.2381 20.44C40.6955 20.44 41.0921 20.384 41.4281 20.272C41.7641 20.1507 42.0535 19.9313 42.2961 19.614C42.5481 19.2873 42.7581 18.8113 42.9261 18.186H43.4861V20.412C42.8235 20.6733 42.2028 20.86 41.6241 20.972C41.0455 21.084 40.5088 21.14 40.0141 21.14ZM46.0267 21.14C45.784 21.14 45.574 21.0607 45.3967 20.902C45.2287 20.734 45.1447 20.5147 45.1447 20.244C45.1447 20.0013 45.2333 19.8007 45.4107 19.642C45.588 19.474 45.7933 19.39 46.0267 19.39C46.2693 19.39 46.4747 19.474 46.6427 19.642C46.82 19.8007 46.9087 20.0013 46.9087 20.244C46.9087 20.5147 46.82 20.734 46.6427 20.902C46.4747 21.0607 46.2693 21.14 46.0267 21.14ZM2.21631 31V30.56L2.52431 30.505C2.68564 30.4757 2.81764 30.4243 2.92031 30.351C3.03031 30.2777 3.12564 30.1787 3.20631 30.054C3.28698 29.922 3.36764 29.757 3.44831 29.559L5.98931 23.245H6.49531L8.95931 29.559C9.07664 29.8523 9.20131 30.0833 9.33331 30.252C9.47264 30.4133 9.68898 30.5087 9.98231 30.538L10.2353 30.56V31H6.99031V30.56L7.35331 30.527C7.67598 30.4977 7.87031 30.4023 7.93631 30.241C8.00231 30.0797 7.97664 29.8523 7.85931 29.559L5.83531 24.279H6.14331L4.13031 29.559C4.01298 29.8523 4.00931 30.0833 4.11931 30.252C4.22931 30.4207 4.43464 30.516 4.73531 30.538L5.05431 30.56V31H2.21631ZM4.48231 28.107V27.579H7.80431V28.107H4.48231ZM12.5182 31.11C12.2322 31.11 11.9646 31.0697 11.7152 30.989C11.4732 30.9083 11.1909 30.791 10.8682 30.637V29.262H11.2972C11.3559 29.6947 11.5026 30.0247 11.7372 30.252C11.9792 30.4793 12.2799 30.593 12.6392 30.593C12.9766 30.593 13.2406 30.5087 13.4312 30.34C13.6219 30.1713 13.7172 29.9623 13.7172 29.713C13.7172 29.471 13.6402 29.2803 13.4862 29.141C13.3396 29.0017 13.1452 28.866 12.9032 28.734L12.1992 28.36C11.7226 28.1033 11.3926 27.8613 11.2092 27.634C11.0332 27.3993 10.9452 27.1133 10.9452 26.776C10.9452 26.4607 11.0332 26.1857 11.2092 25.951C11.3926 25.709 11.6382 25.5183 11.9462 25.379C12.2616 25.2397 12.6136 25.17 13.0022 25.17C13.3029 25.17 13.5706 25.1993 13.8052 25.258C14.0399 25.3167 14.2526 25.39 14.4432 25.478V26.754H14.0142C13.9849 26.6 13.9299 26.4423 13.8492 26.281C13.7686 26.1123 13.6476 25.973 13.4862 25.863C13.3249 25.7457 13.1086 25.687 12.8372 25.687C12.5219 25.687 12.2762 25.7713 12.1002 25.94C11.9242 26.1013 11.8362 26.292 11.8362 26.512C11.8362 26.688 11.8986 26.853 12.0232 27.007C12.1479 27.161 12.3532 27.3113 12.6392 27.458L13.3652 27.832C13.7759 28.0373 14.0839 28.2537 14.2892 28.481C14.5019 28.701 14.6082 29.0163 14.6082 29.427C14.6082 29.779 14.5092 30.0797 14.3112 30.329C14.1132 30.5783 13.8529 30.7727 13.5302 30.912C13.2149 31.044 12.8776 31.11 12.5182 31.11ZM18.4709 31.11C17.9355 31.11 17.4589 30.9817 17.0409 30.725C16.6302 30.4683 16.3075 30.1163 16.0729 29.669C15.8382 29.2217 15.7209 28.7083 15.7209 28.129C15.7209 27.5717 15.8492 27.073 16.1059 26.633C16.3699 26.1857 16.7219 25.83 17.1619 25.566C17.6092 25.302 18.1079 25.17 18.6579 25.17C19.2152 25.17 19.6662 25.335 20.0109 25.665C20.3629 25.995 20.5389 26.4753 20.5389 27.106C20.5389 27.15 20.5389 27.1977 20.5389 27.249C20.5389 27.293 20.5315 27.3553 20.5169 27.436L20.4949 27.59H16.5789V27.106H19.4499C19.4719 26.996 19.4829 26.8897 19.4829 26.787C19.4829 26.4863 19.3912 26.237 19.2079 26.039C19.0319 25.841 18.7862 25.742 18.4709 25.742C17.9355 25.742 17.5102 25.94 17.1949 26.336C16.8795 26.7247 16.7219 27.238 16.7219 27.876C16.7219 28.3233 16.8172 28.7267 17.0079 29.086C17.1985 29.438 17.4662 29.7167 17.8109 29.922C18.1629 30.12 18.5699 30.219 19.0319 30.219C19.2812 30.219 19.5269 30.1823 19.7689 30.109C20.0109 30.0283 20.2419 29.911 20.4619 29.757L20.6819 29.966C20.3739 30.3693 20.0475 30.6627 19.7029 30.846C19.3655 31.022 18.9549 31.11 18.4709 31.11ZM23.443 31.11C23.157 31.11 22.8894 31.0697 22.64 30.989C22.398 30.9083 22.1157 30.791 21.793 30.637V29.262H22.222C22.2807 29.6947 22.4274 30.0247 22.662 30.252C22.904 30.4793 23.2047 30.593 23.564 30.593C23.9014 30.593 24.1654 30.5087 24.356 30.34C24.5467 30.1713 24.642 29.9623 24.642 29.713C24.642 29.471 24.565 29.2803 24.411 29.141C24.2644 29.0017 24.07 28.866 23.828 28.734L23.124 28.36C22.6474 28.1033 22.3174 27.8613 22.134 27.634C21.958 27.3993 21.87 27.1133 21.87 26.776C21.87 26.4607 21.958 26.1857 22.134 25.951C22.3174 25.709 22.563 25.5183 22.871 25.379C23.1864 25.2397 23.5384 25.17 23.927 25.17C24.2277 25.17 24.4954 25.1993 24.73 25.258C24.9647 25.3167 25.1774 25.39 25.368 25.478V26.754H24.939C24.9097 26.6 24.8547 26.4423 24.774 26.281C24.6934 26.1123 24.5724 25.973 24.411 25.863C24.2497 25.7457 24.0334 25.687 23.762 25.687C23.4467 25.687 23.201 25.7713 23.025 25.94C22.849 26.1013 22.761 26.292 22.761 26.512C22.761 26.688 22.8234 26.853 22.948 27.007C23.0727 27.161 23.278 27.3113 23.564 27.458L24.29 27.832C24.7007 28.0373 25.0087 28.2537 25.214 28.481C25.4267 28.701 25.533 29.0163 25.533 29.427C25.533 29.779 25.434 30.0797 25.236 30.329C25.038 30.5783 24.7777 30.7727 24.455 30.912C24.1397 31.044 23.8024 31.11 23.443 31.11ZM29.6267 31.11C29.0327 31.11 28.512 30.9853 28.0647 30.736C27.6173 30.4867 27.269 30.1383 27.0197 29.691C26.7703 29.2437 26.6457 28.7267 26.6457 28.14C26.6457 27.546 26.7703 27.0253 27.0197 26.578C27.269 26.1307 27.6137 25.786 28.0537 25.544C28.501 25.2947 29.0217 25.17 29.6157 25.17C30.2097 25.17 30.7303 25.2947 31.1777 25.544C31.625 25.7933 31.9733 26.1417 32.2227 26.589C32.472 27.029 32.5967 27.546 32.5967 28.14C32.5967 28.734 32.472 29.2547 32.2227 29.702C31.9807 30.142 31.636 30.4867 31.1887 30.736C30.7413 30.9853 30.2207 31.11 29.6267 31.11ZM29.8467 30.516C30.3747 30.516 30.7853 30.3327 31.0787 29.966C31.3793 29.5993 31.5297 29.086 31.5297 28.426C31.5297 27.898 31.438 27.436 31.2547 27.04C31.0787 26.6367 30.8293 26.325 30.5067 26.105C30.1913 25.8777 29.821 25.764 29.3957 25.764C28.8677 25.764 28.4533 25.9473 28.1527 26.314C27.8593 26.6807 27.7127 27.194 27.7127 27.854C27.7127 28.3747 27.8007 28.8367 27.9767 29.24C28.16 29.6433 28.413 29.9587 28.7357 30.186C29.0583 30.406 29.4287 30.516 29.8467 30.516ZM33.5286 31V30.56L33.7596 30.538C34.0089 30.516 34.1776 30.4537 34.2656 30.351C34.3609 30.241 34.4086 30.0613 34.4086 29.812V26.732C34.4086 26.4973 34.3426 26.3323 34.2106 26.237C34.0859 26.1417 33.8659 26.0903 33.5506 26.083V25.698L35.2116 25.214H35.3656V26.094H35.4646C35.6186 25.8667 35.8276 25.6613 36.0916 25.478C36.3556 25.2873 36.6782 25.192 37.0596 25.192C37.3236 25.192 37.5216 25.2433 37.6536 25.346C37.7929 25.4487 37.8626 25.5953 37.8626 25.786C37.8626 25.918 37.8112 26.0353 37.7086 26.138C37.6132 26.2333 37.4996 26.2993 37.3676 26.336C37.2356 26.3653 37.1109 26.347 36.9936 26.281L36.5646 26.039C36.4546 25.973 36.3372 25.962 36.2126 26.006C36.0952 26.0427 35.9816 26.1123 35.8716 26.215C35.7689 26.3103 35.6736 26.413 35.5856 26.523C35.5049 26.633 35.4426 26.7283 35.3986 26.809V29.812C35.3986 30.0613 35.4572 30.2373 35.5746 30.34C35.6919 30.4353 35.9229 30.5013 36.2676 30.538L36.4986 30.56V31H33.5286ZM41.1369 31.11C40.6016 31.11 40.1249 30.9817 39.7069 30.725C39.2962 30.4683 38.9736 30.1163 38.7389 29.669C38.5042 29.2217 38.3869 28.7083 38.3869 28.129C38.3869 27.5717 38.5152 27.073 38.7719 26.633C39.0359 26.1857 39.3879 25.83 39.8279 25.566C40.2752 25.302 40.7739 25.17 41.3239 25.17C41.8812 25.17 42.3322 25.335 42.6769 25.665C43.0289 25.995 43.2049 26.4753 43.2049 27.106C43.2049 27.15 43.2049 27.1977 43.2049 27.249C43.2049 27.293 43.1976 27.3553 43.1829 27.436L43.1609 27.59H39.2449V27.106H42.1159C42.1379 26.996 42.1489 26.8897 42.1489 26.787C42.1489 26.4863 42.0572 26.237 41.8739 26.039C41.6979 25.841 41.4522 25.742 41.1369 25.742C40.6016 25.742 40.1762 25.94 39.8609 26.336C39.5456 26.7247 39.3879 27.238 39.3879 27.876C39.3879 28.3233 39.4832 28.7267 39.6739 29.086C39.8646 29.438 40.1322 29.7167 40.4769 29.922C40.8289 30.12 41.2359 30.219 41.6979 30.219C41.9472 30.219 42.1929 30.1823 42.4349 30.109C42.6769 30.0283 42.9079 29.911 43.1279 29.757L43.3479 29.966C43.0399 30.3693 42.7136 30.6627 42.3689 30.846C42.0316 31.022 41.6209 31.11 41.1369 31.11ZM46.1091 31.11C45.8231 31.11 45.5554 31.0697 45.3061 30.989C45.0641 30.9083 44.7817 30.791 44.4591 30.637V29.262H44.8881C44.9467 29.6947 45.0934 30.0247 45.3281 30.252C45.5701 30.4793 45.8707 30.593 46.2301 30.593C46.5674 30.593 46.8314 30.5087 47.0221 30.34C47.2127 30.1713 47.3081 29.9623 47.3081 29.713C47.3081 29.471 47.2311 29.2803 47.0771 29.141C46.9304 29.0017 46.7361 28.866 46.4941 28.734L45.7901 28.36C45.3134 28.1033 44.9834 27.8613 44.8001 27.634C44.6241 27.3993 44.5361 27.1133 44.5361 26.776C44.5361 26.4607 44.6241 26.1857 44.8001 25.951C44.9834 25.709 45.2291 25.5183 45.5371 25.379C45.8524 25.2397 46.2044 25.17 46.5931 25.17C46.8937 25.17 47.1614 25.1993 47.3961 25.258C47.6307 25.3167 47.8434 25.39 48.0341 25.478V26.754H47.6051C47.5757 26.6 47.5207 26.4423 47.4401 26.281C47.3594 26.1123 47.2384 25.973 47.0771 25.863C46.9157 25.7457 46.6994 25.687 46.4281 25.687C46.1127 25.687 45.8671 25.7713 45.6911 25.94C45.5151 26.1013 45.4271 26.292 45.4271 26.512C45.4271 26.688 45.4894 26.853 45.6141 27.007C45.7387 27.161 45.9441 27.3113 46.2301 27.458L46.9561 27.832C47.3667 28.0373 47.6747 28.2537 47.8801 28.481C48.0927 28.701 48.1991 29.0163 48.1991 29.427C48.1991 29.779 48.1001 30.0797 47.9021 30.329C47.7041 30.5783 47.4437 30.7727 47.1211 30.912C46.8057 31.044 46.4684 31.11 46.1091 31.11Z" fill="#030068"/>
<rect y="34" width="51" height="8" fill="#FF8922"/>
<rect width="51" height="8" fill="#FF8922"/>
</svg>
